<?xml version="1.0" standalone="no"?>
<!DOCTYPE svg PUBLIC "-//W3C//DTD SVG 20010904//EN"
 "http://www.w3.org/TR/2001/REC-SVG-20010904/DTD/svg10.dtd">
<svg version="1.0" xmlns="http://www.w3.org/2000/svg"
 width="128.000000pt" height="128.000000pt" viewBox="0 0 128.000000 128.000000"
 preserveAspectRatio="xMidYMid meet">

<g transform="translate(0.000000,128.000000) scale(0.100000,-0.100000)"
fill="#000000" stroke="none">
<path d="M206 1099 c-44 -35 -50 -57 -56 -202 -5 -137 -5 -139 -33 -163 -15
-13 -39 -24 -53 -24 -22 0 -24 -4 -24 -49 0 -47 1 -49 34 -55 62 -12 70 -32
76 -186 4 -120 8 -142 26 -167 31 -43 80 -63 152 -63 l62 0 0 50 0 50 -34 0
c-25 0 -40 7 -55 26 -18 23 -21 41 -21 138 0 122 -15 165 -65 188 l-24 11 42
37 42 38 5 130 c6 148 16 172 77 172 33 0 33 1 33 45 l0 45 -79 0 c-64 0 -83
-4 -105 -21z"/>
<path d="M890 1075 c0 -44 1 -45 33 -45 69 0 86 -41 87 -200 0 -106 9 -129 62
-156 l31 -16 -32 -16 c-48 -23 -58 -53 -63 -183 -5 -143 -17 -169 -78 -169
l-40 0 0 -50 0 -50 63 1 c78 0 124 16 151 52 18 24 22 48 27 163 6 154 18 182
82 198 36 9 37 11 37 58 0 42 -3 48 -20 48 -29 0 -76 26 -85 47 -5 10 -10 77
-13 148 -3 83 -9 140 -18 157 -22 42 -63 58 -149 58 l-75 0 0 -45z"/>
<path d="M420 665 l0 -305 70 0 70 0 0 110 c0 61 4 110 9 110 5 0 53 -49 108
-109 l98 -110 89 0 90 -1 -25 28 c-60 66 -225 249 -243 269 l-19 22 79 87 c43
48 103 113 132 145 l54 59 -84 0 -83 -1 -94 -104 c-52 -58 -98 -105 -103 -105
-4 0 -8 47 -8 105 l0 105 -70 0 -70 0 0 -305z"/>
</g>
</svg>
